<svg width="147" height="51" viewBox="0 0 147 51" fill="none" xmlns="http://www.w3.org/2000/svg">
<rect width="147" height="51" fill="black"/>
<mask id="mask0_68_373" style="mask-type:luminance" maskUnits="userSpaceOnUse" x="10" y="10" width="127" height="31">
<path d="M137 10H10V41H137V10Z" fill="white"/>
</mask>
<g mask="url(#mask0_68_373)">
<path d="M48.829 22.3287C49.3546 21.3429 50.0817 20.5823 51.0103 20.047C51.9388 19.5118 52.9978 19.2422 54.1891 19.2422C55.7507 19.2422 57.0399 19.6311 58.0528 20.4071C59.0657 21.185 59.7199 22.2382 60.0135 23.5745H58.2734C58.0566 22.658 57.5886 21.9398 56.8691 21.4199C56.1498 20.9 55.2557 20.6401 54.1891 20.6401C53.3392 20.6401 52.5719 20.8345 51.8927 21.2235C51.2117 21.6105 50.6746 22.1901 50.2793 22.9584C49.8841 23.7266 49.6884 24.6701 49.6884 25.7888C49.6884 26.9056 49.8861 27.8529 50.2793 28.6288C50.6746 29.4048 51.2117 29.9882 51.8927 30.3752C52.5738 30.7623 53.3392 30.9568 54.1891 30.9568C55.2577 30.9568 56.1498 30.6968 56.8691 30.1769C57.5886 29.657 58.0566 28.9311 58.2734 27.9992H60.0135C59.7199 29.3027 59.0619 30.3502 58.0413 31.1435C57.0207 31.9349 55.7353 32.3315 54.1891 32.3315C52.9978 32.3315 51.9388 32.0639 51.0103 31.5286C50.0817 30.9933 49.3546 30.2327 48.829 29.2469C48.3034 28.2611 48.0405 27.1077 48.0405 25.7888C48.0405 24.4679 48.3034 23.3145 48.829 22.3287Z" fill="white"/>
<path d="M67.6581 31.5267C66.7067 30.9914 65.9568 30.2308 65.408 29.245C64.8593 28.2591 64.585 27.1058 64.585 25.7868C64.585 24.466 64.8631 23.3145 65.4196 22.3287C65.9756 21.3429 66.7337 20.5823 67.6929 20.047C68.652 19.5118 69.7265 19.2422 70.9176 19.2422C72.1092 19.2422 73.187 19.5098 74.1539 20.047C75.1207 20.5823 75.8789 21.3429 76.4272 22.3287C76.976 23.3145 77.2505 24.4679 77.2505 25.7868C77.2505 27.0904 76.9722 28.2399 76.4139 29.2334C75.8579 30.227 75.092 30.9914 74.1174 31.5267C73.1428 32.062 72.0589 32.3296 70.8695 32.3296C69.6824 32.3296 68.61 32.062 67.6581 31.5267ZM73.1931 30.3386C73.9048 29.9574 74.4802 29.3836 74.9214 28.6154C75.3626 27.8471 75.5834 26.9036 75.5834 25.7849C75.5834 24.6662 75.3664 23.7227 74.933 22.9545C74.4995 22.1862 73.9275 21.6125 73.2157 21.2312C72.504 20.85 71.7309 20.6613 70.8949 20.6613C70.06 20.6613 69.2853 20.8519 68.5736 21.2312C67.8618 21.6125 67.2936 22.1862 66.8679 22.9545C66.4422 23.7227 66.2291 24.6662 66.2291 25.7849C66.2291 26.9017 66.4422 27.8452 66.8679 28.6154C67.2936 29.3836 67.858 29.9574 68.562 30.3386C69.266 30.7199 70.0352 30.9086 70.8717 30.9086C71.7083 30.9086 72.4813 30.7199 73.1931 30.3386Z" fill="white"/>
<path d="M84.3653 31.8077C83.5696 31.4438 82.9385 30.9451 82.4741 30.3173C82.0097 29.6878 81.7624 28.9869 81.7314 28.209H84.4691C84.515 28.752 84.7739 29.2064 85.246 29.5722C85.7181 29.938 86.309 30.1191 87.0207 30.1191C87.7628 30.1191 88.3388 29.9766 88.749 29.6878C89.1598 29.4009 89.3652 29.0331 89.3652 28.5806C89.3652 28.0992 89.1366 27.743 88.68 27.51C88.2234 27.2771 87.5006 27.021 86.5105 26.7418C85.5514 26.478 84.7706 26.2219 84.166 25.9735C83.5636 25.7251 83.0418 25.3439 82.6006 24.8317C82.1594 24.3196 81.9385 23.6437 81.9385 22.8042C81.9385 22.1207 82.1401 21.4968 82.5409 20.9288C82.944 20.3627 83.5194 19.916 84.2698 19.5887C85.0196 19.2633 85.8832 19.0996 86.8578 19.0996C88.3117 19.0996 89.484 19.4693 90.3724 20.2068C91.2625 20.9442 91.7379 21.9512 91.7992 23.2221H89.1538C89.1079 22.6482 88.876 22.19 88.4575 21.8473C88.0395 21.5064 87.4752 21.3351 86.7634 21.3351C86.0671 21.3351 85.5337 21.466 85.1616 21.7298C84.7916 21.9936 84.6055 22.3421 84.6055 22.7773C84.6055 23.12 84.7281 23.4069 84.9777 23.6398C85.225 23.8728 85.526 24.0557 85.8832 24.1886C86.2377 24.3214 86.7656 24.4871 87.4602 24.6892C88.3885 24.9376 89.1499 25.1898 89.7468 25.446C90.3415 25.7021 90.8578 26.0775 91.289 26.5743C91.7225 27.071 91.9472 27.7314 91.9627 28.5537C91.9627 29.2834 91.7611 29.9362 91.3603 30.5099C90.9572 31.0856 90.3895 31.5343 89.6546 31.8616C88.9196 32.187 88.0566 32.3507 87.0666 32.3507C86.0633 32.3545 85.1638 32.1735 84.3653 31.8077Z" fill="white"/>
<path d="M97.0601 22.2483C97.5935 21.2547 98.3207 20.4826 99.2412 19.93C100.162 19.3794 101.179 19.104 102.294 19.104C103.299 19.104 104.178 19.3023 104.927 19.699C105.678 20.0956 106.278 20.5886 106.725 21.1777V19.3139H109.393V32.1452H106.725V30.2351C106.276 30.8397 105.666 31.3442 104.893 31.7485C104.12 32.1529 103.237 32.3551 102.248 32.3551C101.148 32.3551 100.143 32.072 99.2318 31.504C98.3185 30.9379 97.5952 30.1465 97.0618 29.1299C96.5289 28.1133 96.2622 26.9599 96.2622 25.6718C96.2622 24.3836 96.5267 23.2418 97.0601 22.2483ZM106.178 23.4113C105.814 22.7605 105.338 22.2637 104.751 21.921C104.162 21.5802 103.529 21.4088 102.848 21.4088C102.167 21.4088 101.532 21.5763 100.945 21.9094C100.356 22.2445 99.8823 22.7316 99.5178 23.3766C99.1528 24.0217 98.9728 24.7861 98.9728 25.6699C98.9728 26.5556 99.155 27.3315 99.5178 27.9997C99.88 28.6678 100.36 29.1761 100.956 29.5247C101.551 29.8731 102.182 30.0483 102.848 30.0483C103.529 30.0483 104.162 29.877 104.751 29.5362C105.338 29.1954 105.814 28.6947 106.178 28.0343C106.541 27.3739 106.723 26.6018 106.723 25.7161C106.725 24.8323 106.543 24.064 106.178 23.4113Z" fill="white"/>
<path d="M120.555 21.4799H118.187V32.145H115.519V21.478H114.011V19.3118H115.519V18.403C115.519 16.9281 115.91 15.8517 116.691 15.1778C117.472 14.502 118.698 14.165 120.368 14.165V16.3774C119.563 16.3774 118.999 16.5295 118.674 16.8318C118.35 17.1341 118.187 17.6578 118.187 18.403V19.3118H120.555V21.4799Z" fill="white"/>
<path d="M136.844 26.7187H127.076C127.153 27.743 127.533 28.5671 128.213 29.1871C128.894 29.8071 129.729 30.1171 130.719 30.1171C132.142 30.1171 133.148 29.5203 133.736 28.3246H136.591C136.203 29.5048 135.503 30.4714 134.49 31.2243C133.477 31.9771 132.221 32.3546 130.719 32.3546C129.497 32.3546 128.401 32.0792 127.436 31.5266C126.47 30.9759 125.711 30.1999 125.163 29.1968C124.614 28.1955 124.34 27.0345 124.34 25.7155C124.34 24.3966 124.607 23.2355 125.14 22.2343C125.673 21.233 126.423 20.461 127.39 19.916C128.357 19.373 129.468 19.1016 130.721 19.1016C131.927 19.1016 133.002 19.3673 133.945 19.8948C134.89 20.4224 135.624 21.1637 136.15 22.1187C136.675 23.0738 136.938 24.1732 136.938 25.4132C136.937 25.8965 136.906 26.3298 136.844 26.7187ZM134.176 24.5757C134.16 23.5975 133.811 22.8139 133.132 22.2228C132.451 21.6335 131.609 21.3389 130.604 21.3389C129.69 21.3389 128.91 21.6297 128.259 22.2112C127.609 22.7927 127.223 23.5821 127.098 24.5757H134.176Z" fill="white"/>
<path d="M33.7557 15.4155C35.1389 15.4155 36.4569 15.6966 37.6559 16.205C34.8396 12.4657 30.3735 10.0435 25.353 10.0435C16.8525 10.0435 9.93652 16.9848 9.93652 25.5165C9.93652 34.0482 16.8525 40.9895 25.353 40.9895C30.3735 40.9895 34.8396 38.5673 37.6559 34.8281C36.455 35.3364 35.137 35.6175 33.7557 35.6175C28.2057 35.6175 23.6898 31.0869 23.6898 25.5146C23.6898 19.9461 28.2057 15.4155 33.7557 15.4155Z" fill="white"/>
<path d="M40.495 25.5156C40.495 21.786 37.4716 18.7515 33.7556 18.7515C30.0395 18.7515 27.0161 21.786 27.0161 25.5156C27.0161 29.2452 30.0395 32.2798 33.7556 32.2798C37.4716 32.2798 40.495 29.2452 40.495 25.5156Z" fill="#FFBE00"/>
</g>
</svg>
