<svg width="168" height="51" viewBox="0 0 168 51" fill="none" xmlns="http://www.w3.org/2000/svg">
<rect width="167.985" height="50.9764" fill="white"/>
<path d="M33.8613 15.3773C35.2469 15.3773 36.5672 15.6587 37.7683 16.1675C34.9471 12.4246 30.4731 10 25.4437 10C16.9282 10 10 16.9481 10 25.4882C10 34.0283 16.9282 40.9764 25.4437 40.9764C30.4731 40.9764 34.9471 38.5518 37.7683 34.8089C36.5653 35.3177 35.245 35.5991 33.8613 35.5991C28.3015 35.5991 23.7775 31.064 23.7775 25.4863C23.7775 19.9085 28.3015 15.3773 33.8613 15.3773Z" fill="black"/>
<path d="M33.8608 32.2598C37.5894 32.2598 40.6121 29.2285 40.6121 25.4891C40.6121 21.7497 37.5894 18.7183 33.8608 18.7183C30.1321 18.7183 27.1094 21.7497 27.1094 25.4891C27.1094 29.2285 30.1321 32.2598 33.8608 32.2598Z" fill="#22AD5C"/>
<path d="M58.4279 35.2792C59.2683 35.2792 60.0583 35.128 60.7978 34.8254C61.5374 34.5229 62.1929 34.1111 62.7644 33.59C63.3358 33.069 63.7645 32.4807 64.0502 31.8252L62.3358 30.8923C61.9828 31.6487 61.4617 32.2538 60.7726 32.7076C60.1003 33.1614 59.3187 33.3883 58.4279 33.3883C57.5371 33.3883 56.7303 33.1614 56.0075 32.7076C55.3016 32.2538 54.7385 31.6403 54.3183 30.8671C53.9149 30.0771 53.7132 29.1947 53.7132 28.2199C53.7132 27.2282 53.9149 26.3458 54.3183 25.5726C54.7385 24.7826 55.3016 24.1691 56.0075 23.7321C56.7303 23.2783 57.5371 23.0514 58.4279 23.0514C59.3187 23.0514 60.1087 23.2783 60.7978 23.7321C61.487 24.1859 61.9996 24.7742 62.3358 25.4969L64.0502 24.6145C63.7645 23.9422 63.3358 23.3539 62.7644 22.8497C62.1929 22.3286 61.5374 21.9168 60.7978 21.6143C60.0583 21.3117 59.2683 21.1605 58.4279 21.1605C57.1001 21.1605 55.9319 21.4714 54.9234 22.0933C53.9149 22.6984 53.1249 23.5304 52.5535 24.5893C51.982 25.6482 51.6963 26.85 51.6963 28.1946C51.6963 29.5393 51.982 30.7495 52.5535 31.8252C53.1249 32.8841 53.9149 33.7245 54.9234 34.3464C55.9319 34.9683 57.1001 35.2792 58.4279 35.2792ZM75.2481 35.2792C76.5087 35.2792 77.6517 34.9767 78.677 34.3716C79.7191 33.7665 80.5511 32.9345 81.173 31.8756C81.7948 30.7999 82.1058 29.5729 82.1058 28.1946C82.1058 26.8332 81.8033 25.623 81.1982 24.5641C80.6099 23.5052 79.7947 22.6732 78.7526 22.0681C77.7273 21.463 76.5591 21.1605 75.2481 21.1605C73.9371 21.1605 72.7605 21.4714 71.7184 22.0933C70.6931 22.6984 69.8779 23.5304 69.2728 24.5893C68.6677 25.6482 68.3652 26.85 68.3652 28.1946C68.3652 29.5561 68.6677 30.7747 69.2728 31.8504C69.8947 32.9093 70.7267 33.7497 71.7688 34.3716C72.8109 34.9767 73.9707 35.2792 75.2481 35.2792ZM75.2481 33.3883C74.3405 33.3883 73.5169 33.1614 72.7773 32.7076C72.0546 32.2538 71.4747 31.6319 71.0377 30.8419C70.6007 30.0519 70.3822 29.1695 70.3822 28.1946C70.3822 27.2198 70.6007 26.3458 71.0377 25.5726C71.4747 24.7994 72.0546 24.1859 72.7773 23.7321C73.5169 23.2783 74.3405 23.0514 75.2481 23.0514C76.1557 23.0514 76.9709 23.2783 77.6937 23.7321C78.4332 24.1859 79.0131 24.7994 79.4333 25.5726C79.8703 26.3458 80.0888 27.2198 80.0888 28.1946C80.0888 29.1695 79.8703 30.0519 79.4333 30.8419C79.0131 31.6319 78.4332 32.2538 77.6937 32.7076C76.9709 33.1614 76.1557 33.3883 75.2481 33.3883ZM87.9251 40.5486C89.2193 40.5486 90.2782 40.1704 91.1018 39.414C91.9422 38.6745 92.6061 37.6912 93.0935 36.4642L99.1192 21.3369H96.0434L92.2111 31.3462L88.3789 21.3369H85.3282L90.7488 34.9767L90.3706 35.8339C90.0681 36.5567 89.7235 37.0861 89.3369 37.4223C88.9672 37.7752 88.3873 37.9517 87.5973 37.9517C87.3284 37.9517 87.051 37.9265 86.7653 37.8761C86.4796 37.8425 86.2358 37.8005 86.0341 37.75V40.1956C86.3199 40.3133 86.6224 40.3973 86.9418 40.4477C87.2779 40.515 87.6057 40.5486 87.9251 40.5486ZM106.705 35.2792C107.646 35.2792 108.495 35.1196 109.251 34.8002C110.008 34.4641 110.638 33.9934 111.142 33.3883V34.9767H113.865V25.7995C113.865 24.8582 113.63 24.0346 113.159 23.3287C112.688 22.606 112.041 22.0429 111.218 21.6395C110.394 21.2361 109.445 21.0344 108.369 21.0344C107.512 21.0344 106.696 21.1857 105.923 21.4882C105.167 21.774 104.503 22.1689 103.932 22.6732C103.377 23.1774 102.965 23.7657 102.696 24.438L105.066 25.623C105.335 24.9843 105.747 24.4716 106.301 24.0851C106.873 23.6985 107.537 23.5052 108.293 23.5052C109.117 23.5052 109.772 23.7237 110.26 24.1607C110.764 24.5809 111.016 25.1272 111.016 25.7995V26.3289L106.68 27.0349C105.1 27.3038 103.932 27.8249 103.175 28.598C102.436 29.3544 102.066 30.2788 102.066 31.3714C102.066 32.5479 102.494 33.4976 103.352 34.2203C104.209 34.9263 105.327 35.2792 106.705 35.2792ZM105.041 31.2705C105.041 30.7327 105.217 30.2872 105.57 29.9343C105.923 29.5813 106.478 29.346 107.234 29.2283L111.016 28.5728V29.304C111.016 29.9931 110.848 30.6234 110.512 31.1949C110.192 31.7664 109.747 32.2202 109.176 32.5563C108.604 32.8757 107.932 33.0354 107.159 33.0354C106.537 33.0354 106.024 32.8757 105.621 32.5563C105.234 32.2202 105.041 31.7916 105.041 31.2705ZM118.748 34.9767H121.597V27.1105C121.597 26.0348 121.882 25.2112 122.454 24.6397C123.042 24.0514 123.807 23.7573 124.748 23.7573H125.933V21.1605H125.101C124.277 21.1605 123.555 21.3117 122.933 21.6143C122.311 21.9168 121.824 22.4043 121.471 23.0766V21.3369H118.748V34.9767ZM135.737 35.2792C136.678 35.2792 137.544 35.1028 138.333 34.7498C139.14 34.3968 139.796 33.8842 140.3 33.2119V34.9767H142.998V15.8911H140.174V22.9253C139.67 22.337 139.031 21.8748 138.258 21.5386C137.501 21.2025 136.653 21.0344 135.711 21.0344C134.417 21.0344 133.249 21.3453 132.207 21.9672C131.182 22.5891 130.366 23.438 129.761 24.5137C129.173 25.5894 128.879 26.7996 128.879 28.1442C128.879 29.4889 129.173 30.699 129.761 31.7748C130.366 32.8505 131.182 33.7077 132.207 34.3464C133.249 34.9683 134.426 35.2792 135.737 35.2792ZM136.014 32.632C135.207 32.632 134.484 32.4387 133.846 32.0521C133.224 31.6655 132.736 31.1361 132.383 30.4637C132.03 29.7746 131.854 29.0014 131.854 28.1442C131.854 27.287 132.03 26.5222 132.383 25.8499C132.753 25.1776 133.249 24.6481 133.871 24.2615C134.51 23.875 135.224 23.6817 136.014 23.6817C136.804 23.6817 137.51 23.875 138.132 24.2615C138.77 24.6481 139.266 25.1776 139.619 25.8499C139.989 26.5222 140.174 27.287 140.174 28.1442C140.174 29.0014 139.989 29.7746 139.619 30.4637C139.266 31.1361 138.77 31.6655 138.132 32.0521C137.51 32.4387 136.804 32.632 136.014 32.632ZM152.918 35.2792C153.926 35.2792 154.809 35.1112 155.565 34.775C156.338 34.422 156.935 33.943 157.355 33.3379C157.775 32.716 157.985 32.0017 157.985 31.1949C157.985 30.2536 157.683 29.4468 157.078 28.7745C156.473 28.0854 155.607 27.5811 154.481 27.2618L152.262 26.6063C151.842 26.4718 151.447 26.2869 151.077 26.0516C150.707 25.8163 150.523 25.4633 150.523 24.9927C150.523 24.5053 150.707 24.1187 151.077 23.8329C151.447 23.5472 151.943 23.4043 152.565 23.4043C153.287 23.4043 153.935 23.5976 154.506 23.9842C155.094 24.3708 155.523 24.8919 155.792 25.5474L157.985 24.5137C157.582 23.4211 156.893 22.5723 155.918 21.9672C154.943 21.3453 153.834 21.0344 152.59 21.0344C151.665 21.0344 150.833 21.2109 150.094 21.5639C149.354 21.9 148.775 22.3706 148.354 22.9757C147.934 23.5808 147.724 24.2952 147.724 25.1188C147.724 26.0432 148.01 26.8416 148.581 27.5139C149.169 28.1862 150.052 28.6905 151.228 29.0266L153.372 29.6317C153.809 29.7494 154.22 29.9343 154.607 30.1864C154.993 30.4217 155.187 30.7831 155.187 31.2705C155.187 31.7916 154.977 32.2034 154.556 32.5059C154.136 32.8085 153.59 32.9597 152.918 32.9597C152.128 32.9597 151.405 32.7328 150.749 32.279C150.111 31.8252 149.607 31.2117 149.237 30.4385L147.043 31.4722C147.463 32.632 148.195 33.5564 149.237 34.2455C150.296 34.9347 151.523 35.2792 152.918 35.2792Z" fill="black"/>
</svg>
