<svg width="100" height="100" viewBox="0 0 100 100" fill="none" xmlns="http://www.w3.org/2000/svg">
<path d="M96.0303 52.627L66.5039 23.1299C55.0378 31.8845 46.545 41.821 41.0254 52.9394H43.3691V63.1006H36.9141C35.4615 67.6653 34.4524 72.4065 33.8867 77.3242L52.4707 96.04C52.6269 96.0322 52.7831 96.024 52.9395 96.0156C53.1673 96.0026 53.3936 95.988 53.6182 95.9717C55.5745 95.8317 57.4854 95.581 59.3506 95.2197C60.1188 95.07 60.8805 94.9024 61.6357 94.7168C69.4873 92.7604 76.4746 88.7207 82.5977 82.5977C87.3438 77.8483 90.8382 72.5814 93.0811 66.7969C94.7948 62.3751 95.7779 57.6518 96.0303 52.627Z" fill="black" fill-opacity="0.2"/>
<path d="M49.3261 73.6552C49.8418 72.4357 50.0996 71.1591 50.0996 69.8254V59.9849H40.259C38.9254 59.9849 37.6488 60.2427 36.4293 60.7584C35.2523 61.2567 34.21 61.9601 33.3023 62.8687C32.3937 63.7764 31.6903 64.8188 31.192 65.9957C30.6763 67.2152 30.4185 68.4918 30.4185 69.8254C30.4185 71.1591 30.6763 72.4357 31.192 73.6552C31.6903 74.8321 32.3937 75.8749 33.3023 76.7834C34.21 77.6911 35.2523 78.3942 36.4293 78.8925C37.648 79.4082 38.9246 79.666 40.259 79.666C41.5927 79.666 42.8693 79.4082 44.0888 78.8925C45.2657 78.3942 46.3085 77.6911 47.217 76.7834C48.1247 75.8749 48.8278 74.8321 49.3261 73.6552Z" fill="#0ACF83"/>
<path d="M36.4293 41.0757C35.2523 41.5741 34.21 42.2775 33.3023 43.186C32.3937 44.0938 31.6903 45.1361 31.192 46.3131C30.6763 47.5326 30.4185 48.8092 30.4185 50.1428C30.4185 51.4765 30.6763 52.753 31.192 53.9725C31.6903 55.1495 32.3937 56.1923 33.3023 57.1008C34.21 58.0093 35.2523 58.7127 36.4293 59.2111C37.6488 59.7268 38.9254 59.9846 40.259 59.9846H50.0996V40.3022H40.259C38.9254 40.3022 37.6488 40.5601 36.4293 41.0757Z" fill="#A259FF"/>
<path d="M36.4293 21.3936C35.2523 21.892 34.21 22.5954 33.3023 23.5039C32.3937 24.4124 31.6903 25.4552 31.192 26.6322C30.6763 27.8517 30.4185 29.1282 30.4185 30.4619C30.4185 31.7955 30.6763 33.0721 31.192 34.2916C31.6903 35.4686 32.3937 36.5113 33.3023 37.4198C34.21 38.3276 35.2523 39.0306 36.4293 39.529C37.648 40.0446 38.9246 40.3025 40.259 40.3025H50.0996V20.6201H40.259C38.9254 20.6201 37.6488 20.878 36.4293 21.3936Z" fill="#F24E1E"/>
<path d="M66.8993 23.5039C65.9908 22.5954 64.9481 21.892 63.7711 21.3936C62.5516 20.878 61.275 20.6201 59.9414 20.6201H50.0996V40.3025H59.9414C61.275 40.3025 62.5516 40.0446 63.7711 39.529C64.9481 39.0306 65.9908 38.3276 66.8993 37.4198C67.8071 36.5113 68.5101 35.4686 69.0085 34.2916C69.5241 33.0721 69.782 31.7955 69.782 30.4619C69.782 29.1274 69.5241 27.8509 69.0085 26.6322C68.5101 25.4552 67.8071 24.4124 66.8993 23.5039Z" fill="#FF7262"/>
<path d="M66.8993 43.186C65.9908 42.2775 64.9481 41.5741 63.7711 41.0757C62.5516 40.5601 61.275 40.3022 59.9414 40.3022C58.6077 40.3022 57.3312 40.5601 56.1117 41.0757C54.9347 41.5741 53.8919 42.2775 52.9834 43.186C52.0749 44.0938 51.3715 45.1361 50.8731 46.3131C50.3574 47.5326 50.0996 48.8092 50.0996 50.1428C50.0996 51.4765 50.3574 52.753 50.8731 53.9725C51.3715 55.1495 52.0749 56.1923 52.9834 57.1008C53.8919 58.0093 54.9347 58.7127 56.1117 59.2111C57.3312 59.7268 58.6077 59.9846 59.9414 59.9846C61.275 59.9846 62.5516 59.7268 63.7711 59.2111C64.9481 58.7127 65.9908 58.0093 66.8993 57.1008C67.8071 56.1923 68.5101 55.1495 69.0085 53.9725C69.5241 52.753 69.782 51.4765 69.782 50.1428C69.782 48.8084 69.5241 47.5318 69.0085 46.3131C68.5101 45.1361 67.8071 44.0938 66.8993 43.186Z" fill="#1ABCFE"/>
</svg>
