<svg width="100" height="102" viewBox="0 0 100 102" fill="none" xmlns="http://www.w3.org/2000/svg">
<path d="M59.3785 11.3686C54.8468 6.28945 50.9445 1.13091 50.1473 0.0595214C50.0634 -0.0198405 49.9375 -0.0198405 49.8535 0.0595214C49.0563 1.13091 45.154 6.28945 40.6223 11.3686C1.72509 58.2317 46.7485 89.8577 46.7485 89.8577L47.1261 90.0957C47.4618 94.9766 48.301 102 48.301 102H51.6578C51.6578 102 52.4971 95.0162 52.8328 90.0957L53.2103 89.8181C53.2523 89.8181 98.2757 58.2317 59.3785 11.3686ZM49.9794 89.1433C49.9794 89.1433 47.9653 87.5164 47.4199 86.683V86.6039L49.8535 35.574C49.8535 35.4153 50.1053 35.4153 50.1053 35.574L52.539 86.6039V86.683C51.9935 87.5164 49.9794 89.1433 49.9794 89.1433Z" fill="#00684A"/>
</svg>
