<svg width="101" height="101" viewBox="0 0 101 101" fill="none" xmlns="http://www.w3.org/2000/svg">
<path d="M66.9771 40.356H84.3954V43.571H77.4856V60.4844H74.0306V43.571H66.9771V40.356Z" fill="white"/>
<path d="M38.3303 40.356V43.571H24.3684V48.7428H35.5965V51.9578H24.3684V57.2695H38.3303V60.4844H20.9135V43.571H20.9121V40.356H38.3303Z" fill="white"/>
<path d="M47.0281 40.3643H42.5068L58.7012 60.4927H63.2357L55.1375 50.4354L63.2228 40.3796L58.7012 40.3866L52.8738 47.6241L47.0281 40.3643Z" fill="white"/>
<path d="M51.6675 54.7424L49.4033 51.9272L42.4937 60.5083H47.0279L51.6675 54.7424Z" fill="white"/>
<path fill-rule="evenodd" clip-rule="evenodd" d="M21.0348 60.4845L4.81855 40.3477H0.5V60.4761H3.95485V44.6501L16.6946 60.4845H21.0348Z" fill="white"/>
<path d="M85.1719 60.3615C84.9189 60.3615 84.7036 60.2739 84.5234 60.0986C84.3432 59.9233 84.2541 59.7111 84.2564 59.4596C84.2541 59.2151 84.3432 59.0052 84.5234 58.8299C84.7036 58.6546 84.9189 58.5669 85.1719 58.5669C85.4153 58.5669 85.6283 58.6546 85.8085 58.8299C85.9912 59.0052 86.0823 59.2151 86.0849 59.4596C86.0823 59.6257 86.0402 59.7779 85.9559 59.914C85.8694 60.0525 85.7595 60.1609 85.6212 60.2393C85.4854 60.32 85.3356 60.3615 85.1719 60.3615Z" fill="white"/>
<path d="M91.0684 51.8818H92.5994V57.7801C92.5971 58.3221 92.4799 58.7858 92.2507 59.1756C92.0189 59.5655 91.6981 59.863 91.2862 60.0729C90.8766 60.2805 90.3966 60.3866 89.8512 60.3866C89.3525 60.3866 88.9055 60.2967 88.5075 60.1214C88.1096 59.9461 87.7936 59.6831 87.5618 59.3371C87.3276 58.9911 87.2129 58.5597 87.2129 58.043H88.7464C88.7486 58.2691 88.8002 58.4651 88.8984 58.6289C88.9966 58.7927 89.1324 58.9172 89.3057 59.0049C89.4811 59.0926 89.6826 59.1364 89.9096 59.1364C90.1555 59.1364 90.3662 59.0856 90.537 58.9818C90.7078 58.8803 90.839 58.7281 90.9304 58.5251C91.0192 58.3244 91.0662 58.0753 91.0684 57.7801V51.8818Z" fill="white"/>
<path d="M98.8985 54.1888C98.8612 53.8312 98.6973 53.5521 98.4117 53.3537C98.1237 53.153 97.7516 53.0539 97.295 53.0539C96.9744 53.0539 96.6983 53.1023 96.4688 53.1969C96.2394 53.2938 96.0615 53.4229 95.9396 53.5867C95.8181 53.7505 95.7572 53.9373 95.7523 54.1473C95.7523 54.3226 95.7945 54.4748 95.8764 54.6017C95.9584 54.7308 96.0683 54.8393 96.2112 54.9269C96.3516 55.0169 96.5084 55.0907 96.6795 55.1507C96.8526 55.2106 97.0259 55.2614 97.199 55.3029L97.9973 55.499C98.3181 55.5728 98.6295 55.672 98.9267 55.7989C99.2239 55.9234 99.4932 56.0826 99.7295 56.274C99.966 56.4655 100.153 56.6962 100.291 56.9661C100.43 57.2359 100.5 57.552 100.5 57.9164C100.5 58.4077 100.373 58.8391 100.118 59.2128C99.863 59.5842 99.4955 59.8748 99.0132 60.0848C98.5333 60.2924 97.9528 60.3985 97.2693 60.3985C96.6092 60.3985 96.0333 60.297 95.5488 60.094C95.062 59.8933 94.6825 59.598 94.4087 59.2105C94.1348 58.823 93.9874 58.3501 93.9663 57.7942H95.4833C95.5044 58.0848 95.598 58.327 95.7572 58.5231C95.9186 58.7169 96.1292 58.8599 96.3869 58.9568C96.6468 59.0513 96.9369 59.0998 97.2577 59.0998C97.5924 59.0998 97.8874 59.049 98.1424 58.9498C98.3952 58.8506 98.5942 58.7123 98.7371 58.5323C98.8823 58.3547 98.9549 58.1448 98.9572 57.9049C98.9549 57.6858 98.8891 57.5035 98.7627 57.3605C98.6341 57.2175 98.4561 57.0975 98.229 57.0007C97.9998 56.9038 97.7328 56.8161 97.4285 56.74L96.4594 56.4955C95.7594 56.3179 95.2046 56.048 94.7995 55.6858C94.3924 55.3237 94.1909 54.8439 94.1909 54.2418C94.1909 53.7482 94.3267 53.3145 94.6008 52.9432C94.8721 52.5718 95.2445 52.2834 95.715 52.0781C96.1879 51.8705 96.7216 51.769 97.316 51.769C97.9201 51.769 98.449 51.8705 98.9056 52.0781C99.362 52.2834 99.7204 52.5695 99.98 52.9339C100.24 53.2984 100.376 53.7159 100.383 54.1888H98.8985Z" fill="white"/>
</svg>
