<svg width="100" height="100" viewBox="0 0 100 100" fill="none" xmlns="http://www.w3.org/2000/svg">
<path d="M49.4262 79.8377C49.0962 79.8377 48.7679 79.7538 48.479 79.5908L45.4637 77.8524C45.0136 77.6068 45.2336 77.5201 45.3819 77.4696C45.9825 77.2665 46.1041 77.2196 46.7452 76.8654C46.8119 76.8289 46.9005 76.8428 46.9694 76.8822L49.2858 78.2223C49.3699 78.2676 49.4884 78.2676 49.5655 78.2223L58.5964 73.1434C58.6804 73.0967 58.7342 73.0024 58.7342 72.9053V62.7505C58.7342 62.6511 58.6802 62.5584 58.5941 62.508L49.567 57.4335C49.4839 57.3859 49.3729 57.3859 49.2888 57.4335L40.264 62.5095C40.1763 62.5584 40.1207 62.6542 40.1207 62.7505V72.9053C40.1207 73.0024 40.176 73.0945 40.2631 73.1406L42.737 74.5333C44.0793 75.1872 44.901 74.417 44.901 73.6432V63.6168C44.901 63.4751 45.0181 63.3632 45.1635 63.3632H46.3087C46.452 63.3632 46.5705 63.4751 46.5705 63.6168V73.6432C46.5705 75.3888 45.5948 76.3899 43.8965 76.3899C43.3745 76.3899 42.9635 76.3899 41.8163 75.839L39.4481 74.5106C38.8633 74.1811 38.501 73.565 38.501 72.9053V62.7505C38.501 62.0908 38.8631 61.4747 39.4481 61.1467L48.479 56.0619C49.0505 55.7469 49.8101 55.7469 50.377 56.0619L59.4072 61.1467C59.992 61.4762 60.3557 62.0908 60.3557 62.7505V72.9053C60.3557 73.565 59.992 74.1789 59.4072 74.5106L50.377 79.591C50.0883 79.7538 49.7608 79.8377 49.4262 79.8377Z" fill="#699F63"/>
<path d="M52.2157 72.8415C48.2638 72.8415 47.436 71.0741 47.436 69.5915C47.436 69.4505 47.5522 69.3379 47.6971 69.3379H48.8647C48.9951 69.3379 49.1039 69.4293 49.1242 69.5536C49.3005 70.7117 49.8261 71.2963 52.216 71.2963C54.1184 71.2963 54.9284 70.8769 54.9284 69.8934C54.9284 69.3265 54.699 68.9055 51.7422 68.6234C49.2714 68.3853 47.743 67.8533 47.743 65.9271C47.743 64.1516 49.2788 63.0928 51.8541 63.0928C54.7471 63.0928 56.1787 64.0712 56.36 66.1703C56.3668 66.2426 56.3406 66.3122 56.2911 66.3661C56.2416 66.4166 56.1726 66.4472 56.0998 66.4472H54.9277C54.8063 66.4472 54.699 66.3633 54.6743 66.2485C54.3931 65.0298 53.7093 64.6404 51.8541 64.6404C49.7768 64.6404 49.5354 65.3454 49.5354 65.8736C49.5354 66.5137 49.8205 66.7 52.6249 67.0617C55.4002 67.419 56.7185 67.9254 56.7185 69.8258C56.7181 71.7432 55.0774 72.8415 52.2157 72.8415Z" fill="#699F63"/>
<path d="M65.2381 62.1914C65.2381 63.1244 64.4553 63.8872 63.4977 63.8872C62.549 63.8872 61.7573 63.1334 61.7573 62.1914C61.7573 61.2312 62.568 60.4951 63.4977 60.4951C64.4372 60.4951 65.2381 61.2312 65.2381 62.1914ZM62.0383 62.1865C62.0383 62.9764 62.6921 63.6136 63.493 63.6136C64.3036 63.6136 64.9576 62.963 64.9576 62.1865C64.9576 61.3971 64.2948 60.7689 63.493 60.7689C62.7011 60.7691 62.0383 61.3878 62.0383 62.1865ZM62.8437 61.24H63.5165C63.7466 61.24 64.198 61.2401 64.198 61.7427C64.198 62.0927 63.9679 62.1643 63.8291 62.2092C64.0968 62.2273 64.1149 62.3978 64.1515 62.64C64.1702 62.7925 64.198 63.0528 64.2527 63.1425H63.8388C63.8291 63.053 63.7647 62.5682 63.7647 62.5416C63.7378 62.4337 63.7003 62.3801 63.5624 62.3801H63.2219V63.1425H62.844V61.24H62.8437ZM63.2127 62.0744H63.5163C63.7645 62.0744 63.811 61.9041 63.811 61.8055C63.811 61.5449 63.6266 61.5449 63.5253 61.5449H63.2127V62.0744Z" fill="#699F63"/>
<path d="M21.4612 40.1068C21.4612 39.7013 21.2422 39.3286 20.883 39.1278L11.3084 33.7588C11.1465 33.6661 10.965 33.6178 10.7812 33.6104C10.7647 33.6104 10.6958 33.6104 10.6822 33.6104C10.4993 33.6176 10.3178 33.6659 10.1535 33.7588L0.578927 39.1278C0.221986 39.3286 0 39.7013 0 40.1068L0.0210231 54.5639C0.0210231 54.7648 0.128173 54.952 0.309695 55.0504C0.487374 55.1542 0.7071 55.1542 0.884101 55.0504L6.57436 51.8755C6.93423 51.6674 7.15328 51.2998 7.15328 50.898V44.1436C7.15328 43.741 7.3721 43.3683 7.73063 43.1683L10.1535 41.8086C10.3341 41.707 10.5314 41.6573 10.7331 41.6573C10.9302 41.6573 11.1328 41.707 11.3082 41.8086L13.7303 43.1683C14.0889 43.3685 14.3086 43.7412 14.3086 44.1436V50.898C14.3086 51.2998 14.5306 51.6696 14.8882 51.8755L20.5769 55.0504C20.7552 55.1542 20.9781 55.1542 21.1551 55.0504C21.3314 54.9518 21.4424 54.7648 21.4424 54.5639L21.4612 40.1068Z" fill="white"/>
<path d="M67.5303 20.2334C67.3511 20.1363 67.1325 20.1385 66.9555 20.2396C66.7789 20.3409 66.6702 20.5257 66.6702 20.7255V35.0426C66.6702 35.1834 66.5929 35.3138 66.4681 35.3843C66.3429 35.4548 66.1885 35.4548 66.063 35.3843L63.665 34.038C63.3072 33.8371 62.867 33.8376 62.5094 34.0385L52.931 39.4246C52.5729 39.6259 52.3525 39.9979 52.3525 40.4004V51.1748C52.3525 51.5775 52.5729 51.9493 52.9308 52.151L62.5087 57.5411C62.8668 57.7424 63.3076 57.7424 63.6657 57.5411L73.245 52.151C73.6028 51.9495 73.8232 51.5775 73.8232 51.1748V24.3167C73.8232 23.9083 73.5965 23.5314 73.2301 23.3323L67.5303 20.2334ZM66.6417 47.6347C66.6417 47.7352 66.5865 47.8283 66.497 47.8783L63.2084 49.7255C63.1191 49.7755 63.009 49.7755 62.9197 49.7255L59.6311 47.8783C59.5415 47.8283 59.4864 47.7352 59.4864 47.6347V43.9345C59.4864 43.8341 59.5415 43.7409 59.6308 43.6904L62.9195 41.8396C63.009 41.7891 63.1193 41.7891 63.2088 41.8396L66.4975 43.6904C66.5868 43.7409 66.6419 43.8341 66.6419 43.9345L66.6417 47.6347Z" fill="white"/>
<path d="M99.4244 44.4988C99.7806 44.2973 99.9999 43.9259 99.9999 43.5244V40.9134C99.9999 40.5118 99.7806 40.1402 99.4239 39.9387L89.9072 34.5548C89.5492 34.3519 89.107 34.3517 88.7482 34.5532L79.1735 39.9393C78.8156 40.1407 78.5952 40.5125 78.5952 40.9151V51.6867C78.5952 52.0918 78.8183 52.4656 79.1793 52.6658L88.6947 57.9488C89.0455 58.144 89.4757 58.1462 89.8288 57.955L95.5841 54.838C95.7668 54.7391 95.8805 54.5523 95.8814 54.3493C95.883 54.1462 95.772 53.9581 95.5912 53.8568L85.9556 48.468C85.7756 48.3675 85.6651 48.1808 85.6651 47.979V44.6032C85.6651 44.4019 85.7752 44.2156 85.9544 44.1151L88.9533 42.4305C89.1316 42.3301 89.3523 42.3301 89.5306 42.4305L92.531 44.1151C92.7103 44.2156 92.8204 44.4019 92.8204 44.6032V47.2592C92.8204 47.4609 92.9312 47.6473 93.1102 47.7477C93.2895 47.8486 93.5103 47.8477 93.6891 47.7466L99.4244 44.4988Z" fill="white"/>
<path d="M89.1867 43.9939C89.2554 43.9552 89.34 43.9552 89.4087 43.9939L91.2465 45.027C91.3153 45.0657 91.3575 45.1369 91.3575 45.2144V47.2822C91.3575 47.3598 91.3153 47.4309 91.2465 47.4697L89.4087 48.5027C89.34 48.5415 89.2554 48.5415 89.1867 48.5027L87.3503 47.4697C87.2815 47.4309 87.2393 47.3598 87.2393 47.2822V45.2144C87.2393 45.1369 87.2815 45.0657 87.3503 45.027L89.1867 43.9939Z" fill="#699F63"/>
<path d="M37.4835 33.9485C37.1277 33.7483 36.6891 33.7483 36.3335 33.9485L26.8089 39.304C26.4527 39.5042 26.2334 39.8741 26.2334 40.2749V50.9943C26.2334 51.3948 26.4527 51.7646 26.8085 51.9652L36.3331 57.3252C36.6891 57.5254 37.1277 57.5254 37.4839 57.3252L47.0063 51.9652C47.3621 51.7648 47.5811 51.3948 47.5811 50.9943V40.2745C47.5811 39.8741 47.3618 39.5042 47.0058 39.304L37.4835 33.9485Z" fill="url(#paint0_linear_157_1321)"/>
<mask id="mask0_157_1321" style="mask-type:luminance" maskUnits="userSpaceOnUse" x="26" y="33" width="22" height="25">
<path d="M37.4835 33.9485C37.1277 33.7483 36.6891 33.7483 36.3335 33.9485L26.8089 39.304C26.4527 39.5042 26.2334 39.8741 26.2334 40.2749V50.9943C26.2334 51.3948 26.4527 51.7646 26.8085 51.9652L36.3331 57.3252C36.6891 57.5254 37.1277 57.5254 37.4839 57.3252L47.0063 51.9652C47.3621 51.7648 47.5811 51.3948 47.5811 50.9943V40.2745C47.5811 39.8741 47.3618 39.5042 47.0058 39.304L37.4835 33.9485Z" fill="white"/>
</mask>
<g mask="url(#mask0_157_1321)">
<path d="M47.0248 39.3044L37.4736 33.9489C37.3793 33.8958 37.2785 33.8579 37.1747 33.833L26.4507 51.7079C26.5431 51.8092 26.6514 51.8975 26.7717 51.9654L36.339 57.3253C36.61 57.4777 36.9322 57.5134 37.2276 57.4337L47.281 39.4962C47.2046 39.4227 47.1189 39.3572 47.0248 39.3044Z" fill="url(#paint1_linear_157_1321)"/>
</g>
<mask id="mask1_157_1321" style="mask-type:luminance" maskUnits="userSpaceOnUse" x="26" y="33" width="22" height="25">
<path d="M37.4835 33.9485C37.1277 33.7483 36.6891 33.7483 36.3335 33.9485L26.8089 39.304C26.4527 39.5042 26.2334 39.8741 26.2334 40.2749V50.9943C26.2334 51.3948 26.4527 51.7646 26.8085 51.9652L36.3331 57.3252C36.6891 57.5254 37.1277 57.5254 37.4839 57.3252L47.0063 51.9652C47.3621 51.7648 47.5811 51.3948 47.5811 50.9943V40.2745C47.5811 39.8741 47.3618 39.5042 47.0058 39.304L37.4835 33.9485Z" fill="white"/>
</mask>
<g mask="url(#mask1_157_1321)">
<path d="M47.0303 51.9651C47.3079 51.8087 47.515 51.5486 47.5934 51.2519L37.1232 33.8228C36.8499 33.7697 36.5599 33.81 36.3137 33.9486L26.8267 39.2719L37.0753 57.4644C37.2216 57.4451 37.3649 57.3988 37.496 57.3252L47.0303 51.9651Z" fill="url(#paint2_linear_157_1321)"/>
<path d="M47.0302 51.9652L37.4959 57.3251C37.3648 57.3989 37.2215 57.4449 37.0752 57.4643L37.2651 57.8013L47.8551 51.8284V51.6876L47.5933 51.252C47.5149 51.5486 47.3078 51.8086 47.0302 51.9652Z" fill="url(#paint3_linear_157_1321)"/>
<path d="M47.0302 51.9652L37.4959 57.3251C37.3648 57.3989 37.2215 57.4449 37.0752 57.4643L37.2651 57.8013L47.8551 51.8284V51.6876L47.5933 51.252C47.5149 51.5486 47.3078 51.8086 47.0302 51.9652Z" fill="url(#paint4_linear_157_1321)"/>
</g>
<defs>
<linearGradient id="paint0_linear_157_1321" x1="40.7798" y1="37.937" x2="32.5294" y2="55.2103" gradientUnits="userSpaceOnUse">
<stop stop-color="#41873F"/>
<stop offset="0.3288" stop-color="#418B3D"/>
<stop offset="0.6352" stop-color="#419637"/>
<stop offset="0.9319" stop-color="#3FA92D"/>
<stop offset="1" stop-color="#3FAE2A"/>
</linearGradient>
<linearGradient id="paint1_linear_157_1321" x1="35.4577" y1="46.8885" x2="59.1562" y2="28.9185" gradientUnits="userSpaceOnUse">
<stop offset="0.1376" stop-color="#41873F"/>
<stop offset="0.4032" stop-color="#54A044"/>
<stop offset="0.7136" stop-color="#66B848"/>
<stop offset="0.9081" stop-color="#6CC04A"/>
</linearGradient>
<linearGradient id="paint2_linear_157_1321" x1="25.8967" y1="45.6324" x2="47.9183" y2="45.6324" gradientUnits="userSpaceOnUse">
<stop offset="0.0919" stop-color="#6CC04A"/>
<stop offset="0.2864" stop-color="#66B848"/>
<stop offset="0.5968" stop-color="#54A044"/>
<stop offset="0.8624" stop-color="#41873F"/>
</linearGradient>
<linearGradient id="paint3_linear_157_1321" x1="25.8966" y1="54.5266" x2="47.9182" y2="54.5266" gradientUnits="userSpaceOnUse">
<stop offset="0.0919" stop-color="#6CC04A"/>
<stop offset="0.2864" stop-color="#66B848"/>
<stop offset="0.5968" stop-color="#54A044"/>
<stop offset="0.8624" stop-color="#41873F"/>
</linearGradient>
<linearGradient id="paint4_linear_157_1321" x1="51.1265" y1="37.4298" x2="38.1043" y2="64.6935" gradientUnits="userSpaceOnUse">
<stop stop-color="#41873F"/>
<stop offset="0.3288" stop-color="#418B3D"/>
<stop offset="0.6352" stop-color="#419637"/>
<stop offset="0.9319" stop-color="#3FA92D"/>
<stop offset="1" stop-color="#3FAE2A"/>
</linearGradient>
</defs>
</svg>
