<svg width="100" height="100" viewBox="0 0 100 100" fill="none" xmlns="http://www.w3.org/2000/svg">
<g clip-path="url(#clip0_68_437)">
<path d="M50.0004 20.0005C36.6667 20.0005 28.3336 26.6655 24.9998 39.9942C30.0004 33.3292 35.8339 30.8308 42.5001 32.4964C46.3041 33.4468 49.0226 36.2065 52.0325 39.2602C56.9343 44.2345 62.6077 49.9917 75.0011 49.9917C88.3336 49.9917 96.6679 43.3267 100 29.9967C95.0011 36.6617 89.1676 39.1614 82.5001 37.4958C78.6975 36.5454 75.9789 33.7856 72.9691 30.732C68.0672 25.7576 62.3926 20.0005 50.0004 20.0005ZM24.9998 49.9917C11.6673 49.9917 3.33298 56.6567 0.000488281 69.9866C4.99986 63.3217 10.8333 60.822 17.5008 62.4889C21.3034 63.4405 24.022 66.199 27.0318 69.2514C31.9337 74.2257 37.6083 79.9841 50.0004 79.9841C63.3342 79.9841 71.6673 73.3191 75.0011 59.9892C70.0004 66.6542 64.167 69.1538 57.5008 67.487C53.6968 66.5379 50.9783 63.7768 47.9684 60.7244C43.0666 55.7501 37.3932 49.9917 24.9998 49.9917Z" fill="#06B6D4"/>
</g>
<defs>
<clipPath id="clip0_68_437">
<rect width="100" height="100" fill="white"/>
</clipPath>
</defs>
</svg>
