<svg width="100" height="100" viewBox="0 0 100 100" fill="none" xmlns="http://www.w3.org/2000/svg">
<path d="M50.1344 0C22.4922 0 0 24.3954 0 54.3757C0 73.4807 9.21406 90.2339 22.7637 99.9335L25.2027 98.1702C25.7445 97.8761 26.5578 97.2881 27.0996 96.9945C27.9125 96.7004 28.7258 96.1124 29.2676 95.8188C30.0805 95.5247 30.8937 95.2307 31.7066 94.6431C32.2484 94.3491 33.0617 94.055 33.6035 93.761C34.4164 93.4674 35.5004 93.1734 36.3137 92.8794C37.1262 92.5853 37.6684 92.5853 38.4816 92.2917C39.2941 91.9977 39.8363 91.9977 40.6496 91.7037C41.4621 91.4096 42.2754 91.4096 43.0883 91.4096C43.9016 91.4096 44.9855 91.116 45.7984 91.116V58.7844H43.0883V52.906H56.6383V91.7037C64.2262 92.8793 71.0012 95.8188 77.234 99.9335C91.0547 90.2339 99.9977 73.4807 99.9977 54.3757C100.269 24.395 77.7758 0 50.1344 0ZM65.0391 54.3757C65.0391 45.5578 58.2641 38.2101 50.1344 38.2101C42.0043 38.2101 35.2297 45.5578 35.2297 54.3757C35.2297 60.5481 38.4816 66.1326 43.3594 68.778V72.0106C37.1266 69.0716 32.5195 62.3115 32.5195 54.3757C32.5195 43.7945 40.3785 35.2706 50.1344 35.2706C59.8902 35.2706 67.7492 43.7945 67.7492 54.3757C67.7492 61.1358 64.4973 67.0142 59.6191 70.5413V67.0142C62.8711 63.7812 65.0391 59.3725 65.0391 54.3757ZM59.6191 86.4133V83.1798C70.7301 79.0651 78.5891 67.6023 78.5891 54.0816C78.5891 37.328 65.852 23.5138 50.1344 23.5138C34.4164 23.5138 21.6797 37.328 21.6797 54.3757C21.6797 68.778 30.8937 81.1225 43.3594 84.3555V87.2949C29.5387 84.0619 18.9699 70.5413 18.9699 54.3757C18.9699 35.5647 32.7902 20.5748 50.134 20.5748C67.4777 20.5748 81.2988 35.5642 81.2988 54.3753C81.2988 69.3656 72.0852 82.2982 59.6191 86.4133Z" fill="#E44A49"/>
</svg>
