<svg width="100" height="100" viewBox="0 0 100 100" fill="none" xmlns="http://www.w3.org/2000/svg">
<path d="M94.1749 0.000488281L86.142 89.99L50.0335 100L14.0245 90.0041L6 0.000488281H94.1749Z" fill="#264DE4"/>
<path d="M79.2648 84.26L86.1295 7.35986H50.0874V92.3491L79.2648 84.26Z" fill="#2965F1"/>
<path d="M24.396 40.7407L25.3854 51.7792H50.0876V40.7407H24.396Z" fill="#EBEBEB"/>
<path d="M50.0877 18.3984H50.0495H22.4082L23.4116 29.4371H50.0877V18.3984Z" fill="#EBEBEB"/>
<path d="M50.0874 80.8935V69.4088L50.039 69.4217L37.7453 66.1021L36.9594 57.2983H30.9856H25.8784L27.4249 74.6305L50.0366 80.9077L50.0874 80.8935Z" fill="#EBEBEB"/>
<path d="M63.6421 51.7792L62.3608 66.0954L50.0493 69.4184V80.9026L72.679 74.6308L72.845 72.7659L75.439 43.7049L75.7083 40.7408L77.7011 18.3984H50.0493V29.4371H65.6038L64.5994 40.7408H50.0493V51.7792H63.6421Z" fill="white"/>
</svg>
