<svg width="100" height="100" viewBox="0 0 100 100" fill="none" xmlns="http://www.w3.org/2000/svg">
<g clip-path="url(#clip0_73_958)">
<path d="M61.3125 36.1187L51.3031 45.4312L42.0156 26.6968L46.8219 15.9218C48.0719 13.7343 50.0219 13.7593 51.2406 15.9218L61.3125 36.1187Z" fill="#FFA000"/>
<path d="M42.0157 26.6968L51.3032 45.4312L13.897 80.228L42.0157 26.6968Z" fill="#F57F17"/>
<path d="M72.2595 21.8843C74.047 20.1656 75.897 20.7531 76.3688 23.1874L86.1063 79.7656L53.8313 99.1406C52.7063 99.7656 49.7063 100.034 49.7063 100.034C49.7063 100.034 46.9751 99.7093 45.9345 99.0968L13.897 80.2281L72.2595 21.8843Z" fill="#FFCA28"/>
<path d="M42.0155 26.697L13.8999 80.2283L26.4218 1.9939C26.8843 -0.443598 28.2718 -0.677974 29.5093 1.47203L42.0155 26.697Z" fill="#FFA000"/>
</g>
<defs>
<clipPath id="clip0_73_958">
<rect width="100" height="100" fill="white"/>
</clipPath>
</defs>
</svg>
