<svg width="100" height="100" viewBox="0 0 100 100" fill="none" xmlns="http://www.w3.org/2000/svg">
<path d="M66.5044 32.0655L75.197 23.4235L75.7763 19.7847C59.936 5.46506 34.756 7.08875 20.4767 23.1726C16.5103 27.6398 13.5677 33.2091 11.9985 38.9602L15.1118 38.5241L32.4966 35.674L33.8388 34.3093C41.572 25.8658 54.6474 24.7299 63.5763 31.914L66.5044 32.0655Z" fill="#EA4335"/>
<path d="M87.5799 38.7063C85.5818 31.3914 81.4799 24.8154 75.7764 19.7852L63.5764 31.9141C68.7279 36.0989 71.6627 42.4034 71.5369 49.0158V51.1688C77.5334 51.1688 82.3951 56.0019 82.3951 61.9634C82.3951 67.9254 77.5334 72.6372 71.5369 72.6372H49.7904L47.6553 74.9417V87.8892L49.7904 89.9207H71.5369C87.1346 90.0415 99.8775 77.69 99.999 62.1832C100.072 52.784 95.4111 43.9723 87.5799 38.7063Z" fill="#4285F4"/>
<path d="M28.0745 89.9205H49.7905V72.6366H28.0745C26.5272 72.6362 25.0288 72.3057 23.6218 71.6665L20.5409 72.6063L11.7874 81.2483L11.0249 84.1896C15.9339 87.8747 21.9233 89.9469 28.0745 89.9205Z" fill="#34A853"/>
<path d="M28.0743 33.8547C12.4763 33.9471 -0.0924563 46.5933 0.000512445 62.1001C0.0524656 70.7595 4.12043 78.911 11.0247 84.1898L23.6216 71.6667C18.1564 69.212 15.7279 62.8178 18.197 57.3848C20.6657 51.9518 27.0978 49.5374 32.5622 51.9918C34.9704 53.0733 36.8989 54.991 37.9868 57.3848L50.5837 44.8617C45.2239 37.8958 36.8958 33.8232 28.0743 33.8547Z" fill="#FBBC05"/>
</svg>
