<svg width="100" height="100" viewBox="0 0 100 100" fill="none" xmlns="http://www.w3.org/2000/svg">
<path d="M50 58.9415C54.9407 58.9415 58.9459 54.9363 58.9459 49.9956C58.9459 45.055 54.9407 41.0498 50 41.0498C45.0594 41.0498 41.0542 45.055 41.0542 49.9956C41.0542 54.9363 45.0594 58.9415 50 58.9415Z" fill="#53C1DE"/>
<path d="M18.8083 65.8377C19.6875 66.1294 20.5667 66.4252 21.4667 66.6794C21.175 67.8502 20.9208 69.0044 20.6833 70.196C18.6333 81.0377 20.2333 89.6294 25.35 92.5794C30.625 95.6252 39.4917 92.5002 48.125 84.9419C48.8083 84.3377 49.4917 83.7127 50.175 83.046C51.0333 83.8877 51.9333 84.6877 52.8292 85.4669C61.1875 92.6544 69.45 95.5627 74.55 92.6169C79.825 89.571 81.5417 80.3335 79.3167 69.0835C79.1363 68.201 78.9404 67.3217 78.7292 66.446C79.3542 66.271 79.9583 66.0752 80.5667 65.8794C91.8375 62.1502 100 56.1127 100 49.921C100 44.0044 92.3042 38.2627 81.6792 34.6085C80.6304 34.2596 79.5761 33.9234 78.5167 33.6085C78.6917 32.8877 78.85 32.1627 79.0042 31.4419C81.4083 19.8002 79.825 10.4502 74.4917 7.36271C69.3542 4.41271 60.975 7.47938 52.5 14.8627C51.6583 15.5835 50.8417 16.346 50.0583 17.1085C49.5271 16.5974 48.9868 16.096 48.4375 15.6044C39.55 7.71271 30.6458 4.39188 25.3125 7.50021C20.1958 10.471 18.6708 19.2794 20.8208 30.2877C21.0375 31.3835 21.2708 32.4544 21.5417 33.5502C20.2917 33.9002 19.0625 34.2919 17.9083 34.7044C7.47917 38.3169 0 44.021 0 49.921C0 56.0169 7.96667 62.1252 18.8083 65.8377ZM45.3708 81.7502C42.1505 84.7023 38.4167 87.0394 34.3542 88.646C32.1875 89.6794 29.6875 89.7794 27.4583 88.9002C24.3542 87.1044 23.0625 80.2085 24.8208 70.9294C25.0375 69.8377 25.2708 68.7419 25.5417 67.6669C29.9167 68.6044 34.3292 69.2502 38.8042 69.5794C41.386 73.2362 44.2045 76.7201 47.2417 80.0085C46.6167 80.6127 45.9917 81.2002 45.3667 81.746L45.3708 81.7502ZM70.175 45.0752C69.2634 43.3517 68.3188 41.6458 67.3417 39.9585C66.3833 38.3002 65.3875 36.6585 64.3542 35.0377C67.5 35.4294 70.5083 35.9544 73.3208 36.6002C72.4208 39.4782 71.3708 42.307 70.175 45.0752ZM70.2125 54.8002C71.4625 57.6335 72.5583 60.5044 73.5125 63.4544C70.4833 64.1377 67.4208 64.6669 64.3333 65.0169C66.4394 61.6977 68.401 58.2889 70.2125 54.8002ZM67.9542 49.9419C65.3331 55.3345 62.3456 60.5411 59.0125 65.5252C56.1042 65.7419 53.075 65.8377 50.0083 65.8377C46.9417 65.8377 43.975 65.7419 41.1042 65.5627C37.7143 60.6157 34.7043 55.4189 32.1 50.0169H32.0917C34.6747 44.622 37.6653 39.432 41.0375 34.4919C47.0071 34.05 53.0012 34.05 58.9708 34.4919C60.6292 36.9544 62.2125 39.471 63.7167 42.0502C65.2167 44.6328 66.63 47.2649 67.9542 49.9419ZM32.6333 39.996C31.675 41.6544 30.7375 43.3502 29.8583 45.071C28.6788 42.2861 27.6358 39.4452 26.7333 36.5585C29.5458 35.9335 32.5333 35.4252 35.6375 35.0335C34.6083 36.6544 33.5917 38.3127 32.6333 39.996ZM29.8625 54.9544C30.7625 56.6752 31.6792 58.3752 32.6542 60.0544C33.65 61.7544 34.6667 63.4544 35.7417 65.1127C32.6975 64.781 29.6726 64.2915 26.6792 63.646C27.5375 60.8335 28.6125 57.9252 29.8625 54.9544ZM50.1583 77.0002C48.0676 74.7392 46.0929 72.3736 44.2417 69.9127C48.1402 70.0722 52.0437 70.0653 55.9417 69.8919C54.1461 72.3659 52.2154 74.7389 50.1583 77.0002ZM75.6875 82.8669C75.596 84.0514 75.2625 85.2046 74.7078 86.2552C74.1532 87.3058 73.389 88.2315 72.4625 88.9752C69.3583 90.771 62.7375 88.4294 55.5875 82.296C54.7463 81.564 53.9197 80.8152 53.1083 80.0502C56.0929 76.7549 58.8466 73.2577 61.35 69.5835C65.8327 69.212 70.2838 68.5269 74.6708 67.5335C74.8667 68.3335 75.0417 69.1335 75.2 69.9169C76.1538 74.1673 76.319 78.5568 75.6875 82.8669ZM77.3833 37.6335C78.4 37.9252 79.375 38.2377 80.3125 38.5502C89.4125 41.6752 95.8 46.3252 95.8 49.8794C95.8 53.7085 88.9833 58.6502 79.2375 61.871C78.6917 62.046 78.1458 62.221 77.5792 62.3794C76.2023 58.1177 74.5388 53.954 72.6 49.9169C74.475 45.9335 76.0583 41.8294 77.3833 37.6335ZM55.25 18.0252C62.5208 11.7002 69.2958 9.22104 72.3833 10.996C75.6833 12.8919 76.9542 20.546 74.8833 30.6044C74.753 31.2601 74.6029 31.9118 74.4333 32.5585C70.102 31.5783 65.7104 30.8865 61.2875 30.4877C58.7519 26.8451 55.9719 23.3788 52.9667 20.1127C53.7292 19.3919 54.4708 18.7085 55.25 18.0252ZM50.0417 23.1044C52.0917 25.3294 54.025 27.671 55.8208 30.0919C51.9492 29.9169 48.0716 29.9169 44.2 30.0919C46.1125 27.5752 48.0875 25.2335 50.0417 23.1044ZM27.3833 11.1335C30.6667 9.22104 37.95 11.9544 45.625 18.7502C46.1125 19.1794 46.6 19.6502 47.1083 20.1169C44.0844 23.3793 41.285 26.8428 38.7292 30.4835C34.315 30.8783 29.9309 31.5574 25.6042 32.5169C25.35 31.521 25.1375 30.5044 24.9208 29.4877C23.0833 20.0335 24.2958 12.9085 27.3833 11.1335ZM19.2792 38.6669C20.3917 38.2752 21.525 37.9252 22.6583 37.5919C23.9862 41.8299 25.5839 45.9787 27.4417 50.0127C25.5667 54.096 23.9458 58.3127 22.6 62.6085L22.5958 62.6127C21.7821 62.3805 20.9749 62.1263 20.175 61.8502C16.0167 60.5419 11.2875 58.471 7.87083 55.7585C6.8955 55.0839 6.06726 54.2183 5.43629 53.2142C4.80531 52.2101 4.38472 51.0883 4.2 49.9169C4.2 46.3419 10.3708 41.771 19.2792 38.6669Z" fill="#53C1DE"/>
</svg>
