<svg width="100" height="100" viewBox="0 0 100 100" fill="none" xmlns="http://www.w3.org/2000/svg">
<g clip-path="url(#clip0_68_449)">
<path d="M98.848 14.8016L52.7313 98.6953C51.7791 100.427 49.3328 100.437 48.3664 98.7141L1.33543 14.8094C0.282369 12.9313 1.86119 10.6561 3.9535 11.0368L50.1197 19.4314C50.4142 19.4849 50.7158 19.4844 51.0102 19.4298L96.2107 11.0486C98.2961 10.6619 99.8822 12.9196 98.848 14.8016Z" fill="url(#paint0_linear_68_449)"/>
<path d="M72.111 0.0251091L37.9836 6.82829C37.7109 6.88263 37.4637 7.02763 37.2809 7.24048C37.098 7.45333 36.9899 7.72197 36.9735 8.00415L34.8743 44.0745C34.8627 44.2723 34.8967 44.4702 34.9734 44.6523C35.0501 44.8345 35.1676 44.9959 35.3163 45.1238C35.4651 45.2518 35.6412 45.3426 35.8305 45.3892C36.0198 45.4359 36.2172 45.4369 36.4071 45.3924L45.9087 43.1616C46.7977 42.9529 47.6011 43.7495 47.4182 44.6589L44.5953 58.7221C44.4055 59.6686 45.2787 60.4777 46.1872 60.1968L52.0561 58.3831C52.9657 58.1022 53.8401 58.9137 53.6475 59.8609L49.1615 81.9508C48.8808 83.3326 50.6874 84.086 51.4406 82.9015L51.9441 82.1103L79.7531 25.65C80.2191 24.7047 79.4157 23.6267 78.3956 23.8273L68.6147 25.7475C67.6959 25.9277 66.9139 25.057 67.1732 24.1425L73.5567 1.62974C73.8164 0.712918 73.031 -0.158255 72.111 0.0251091Z" fill="url(#paint1_linear_68_449)"/>
</g>
<defs>
<linearGradient id="paint0_linear_68_449" x1="0.187128" y1="17.8054" x2="51.0375" y2="85.6882" gradientUnits="userSpaceOnUse">
<stop stop-color="#41D1FF"/>
<stop offset="1" stop-color="#BD34FE"/>
</linearGradient>
<linearGradient id="paint1_linear_68_449" x1="54.3985" y1="1.87231" x2="64.9804" y2="73.2245" gradientUnits="userSpaceOnUse">
<stop stop-color="#FFEA83"/>
<stop offset="0.083" stop-color="#FFDD35"/>
<stop offset="1" stop-color="#FFA800"/>
</linearGradient>
<clipPath id="clip0_68_449">
<rect width="100" height="100" fill="white"/>
</clipPath>
</defs>
</svg>
