<svg width="96" height="51" viewBox="0 0 96 51" fill="none" xmlns="http://www.w3.org/2000/svg">
<path d="M47.7893 20.7649L39.3164 9.95663V18.7623L48.4929 30.4128H53.6529V9.94727H47.7893V20.7649Z" fill="url(#paint0_linear_88_743)"/>
<path d="M63.6209 25.5935V22.3463H73.8822V17.8733H63.6209V14.7478H74.9474V9.94727H57.7573V30.4128H75.1038V25.5935H63.6209Z" fill="url(#paint1_linear_88_743)"/>
<path d="M28.5469 9.95663C28.3775 9.95039 28.2049 9.94727 28.029 9.94727C21.6865 9.94727 16.937 14.5326 16.937 20.1753V20.2315C16.937 25.8836 21.6279 30.4034 27.9703 30.4034C29.9053 30.4034 31.6937 29.9823 33.2378 29.2243V15.1783H28.5469V9.95663Z" fill="url(#paint2_linear_88_743)"/>
<path d="M35.6614 37.0009H33.2573V35.1387H37.8798V42.8027H35.6614V37.0009Z" fill="white"/>
<path fill-rule="evenodd" clip-rule="evenodd" d="M45.2677 42.9523C44.6553 42.9523 44.0853 42.8494 43.5575 42.6435C43.0298 42.4314 42.577 42.1476 42.1991 41.792C41.8147 41.4364 41.515 41.0184 41.3 40.538C41.0785 40.0514 40.9678 39.5367 40.9678 38.994V38.9659C40.9678 38.4232 41.0785 37.9085 41.3 37.4219C41.515 36.9353 41.818 36.5111 42.2089 36.1492C42.5933 35.7874 43.0494 35.5035 43.5771 35.2977C44.1048 35.0855 44.6781 34.9795 45.2971 34.9795C45.9095 34.9795 46.4796 35.0855 47.0073 35.2977C47.535 35.5035 47.9878 35.7843 48.3657 36.1399C48.7501 36.5017 49.0498 36.9228 49.2648 37.4032C49.4798 37.8835 49.5873 38.3982 49.5873 38.9472V38.9659C49.5873 39.5149 49.4798 40.0327 49.2648 40.5193C49.0498 41.0059 48.7468 41.427 48.3559 41.7826C47.965 42.1444 47.5089 42.4314 46.9877 42.6435C46.46 42.8494 45.8867 42.9523 45.2677 42.9523ZM45.2873 41.034C45.5935 41.034 45.8736 40.981 46.1277 40.8749C46.3753 40.7626 46.5871 40.6129 46.763 40.4257C46.9389 40.2448 47.0789 40.0296 47.1832 39.78C47.2809 39.5305 47.3298 39.2685 47.3298 38.994V38.9659C47.3298 38.6914 47.2809 38.4294 47.1832 38.1799C47.0789 37.9303 46.9356 37.712 46.7532 37.5248C46.5708 37.3314 46.3525 37.1786 46.0984 37.0663C45.8508 36.954 45.574 36.8978 45.2677 36.8978C44.9615 36.8978 44.6846 36.954 44.4371 37.0663C44.1895 37.1723 43.9745 37.3189 43.7921 37.5061C43.6097 37.6933 43.4728 37.9116 43.3816 38.1611C43.2839 38.4044 43.235 38.6665 43.235 38.9472V38.9659C43.235 39.2466 43.2839 39.5087 43.3816 39.752C43.4859 40.0015 43.6259 40.223 43.8018 40.4164C43.9843 40.6035 44.1993 40.7533 44.4468 40.8656C44.7009 40.9778 44.9811 41.034 45.2873 41.034Z" fill="white"/>
<path d="M54.3469 42.9431C53.7736 42.9431 53.2589 42.8745 52.8028 42.7372C52.3468 42.5937 51.9591 42.3785 51.6399 42.0915C51.3206 41.8045 51.0731 41.4396 50.8972 40.9967C50.7278 40.5537 50.6431 40.0359 50.6431 39.4433V35.1387H52.9103V39.3965C52.9103 39.9517 53.0406 40.3603 53.3012 40.6223C53.5683 40.8906 53.9234 41.0247 54.3664 41.0247C54.816 41.0247 55.1711 40.8968 55.4317 40.6411C55.6988 40.3853 55.8323 39.9891 55.8323 39.4526V35.1387H58.0996V39.3871C58.0996 40.0047 58.0084 40.5381 57.826 40.9873C57.6501 41.4365 57.3992 41.8045 57.0735 42.0915C56.7477 42.3785 56.3568 42.5937 55.9008 42.7372C55.4382 42.8745 54.9202 42.9431 54.3469 42.9431Z" fill="white"/>
<path d="M63.2593 42.9523C62.6925 42.9523 62.155 42.8525 61.6468 42.6529C61.1452 42.4595 60.7119 42.185 60.3471 41.8294C59.9757 41.4738 59.6825 41.0558 59.4675 40.5755C59.246 40.0889 59.1353 39.5617 59.1353 38.994V38.9659C59.1353 38.4107 59.2428 37.8929 59.4578 37.4125C59.6727 36.9259 59.9659 36.5017 60.3373 36.1399C60.7087 35.778 61.1517 35.4942 61.6664 35.2883C62.1811 35.0824 62.7446 34.9795 63.357 34.9795C63.7675 34.9795 64.1389 35.02 64.4711 35.1011C64.8099 35.176 65.1194 35.2852 65.3995 35.4287C65.6732 35.5722 65.924 35.7406 66.152 35.934C66.3735 36.1336 66.5722 36.3489 66.7482 36.5797L65.077 37.8149C64.849 37.5404 64.5982 37.3221 64.3245 37.1599C64.0509 37.0039 63.7186 36.9259 63.3277 36.9259C63.0476 36.9259 62.7902 36.9758 62.5557 37.0756C62.3277 37.1817 62.1289 37.3283 61.9596 37.5155C61.7902 37.6964 61.6599 37.9116 61.5686 38.1611C61.4709 38.4044 61.4221 38.6665 61.4221 38.9472V38.9659C61.4221 39.2529 61.4709 39.5211 61.5686 39.7707C61.6599 40.0265 61.7902 40.2448 61.9596 40.4257C62.1289 40.6066 62.3277 40.7501 62.5557 40.8562C62.7902 40.9622 63.0476 41.0153 63.3277 41.0153C63.5362 41.0153 63.7251 40.9934 63.8945 40.9498C64.0704 40.9061 64.2268 40.8406 64.3636 40.7533C64.507 40.6722 64.6405 40.5755 64.7643 40.4632C64.8946 40.3509 65.0184 40.2261 65.1357 40.0889L66.8068 41.2211C66.6179 41.4707 66.4094 41.7015 66.1813 41.9136C65.9598 42.1257 65.7057 42.3067 65.4191 42.4564C65.1324 42.6123 64.8132 42.734 64.4614 42.8213C64.103 42.9087 63.7023 42.9523 63.2593 42.9523Z" fill="white"/>
<path d="M67.7549 35.1387H69.9733V38.0022H72.8171V35.1387H75.0355V42.8027H72.8171V39.8831H69.9733V42.8027H67.7549V35.1387Z" fill="white"/>
<path d="M40.2742 35.1387V37.0009L37.8799 35.1387H40.2742Z" fill="#D92C28"/>
<defs>
<linearGradient id="paint0_linear_88_743" x1="46.4847" y1="9.94727" x2="46.4847" y2="30.4128" gradientUnits="userSpaceOnUse">
<stop offset="0.2" stop-color="#1EA2DB"/>
<stop offset="1" stop-color="#105CAA"/>
</linearGradient>
<linearGradient id="paint1_linear_88_743" x1="66.4306" y1="9.94727" x2="66.4306" y2="30.4128" gradientUnits="userSpaceOnUse">
<stop offset="0.2" stop-color="#1EA2DB"/>
<stop offset="1" stop-color="#105CAA"/>
</linearGradient>
<linearGradient id="paint2_linear_88_743" x1="25.0874" y1="9.94727" x2="25.0874" y2="30.4034" gradientUnits="userSpaceOnUse">
<stop offset="0.2" stop-color="#1EA2DB"/>
<stop offset="1" stop-color="#105CAA"/>
</linearGradient>
</defs>
</svg>
