<svg width="169" height="51" viewBox="0 0 169 51" fill="none" xmlns="http://www.w3.org/2000/svg">
<path d="M34.8462 15.3773C36.2318 15.3773 37.5521 15.6587 38.7532 16.1675C35.932 12.4246 31.458 10 26.4286 10C17.913 10 10.9849 16.9481 10.9849 25.4882C10.9849 34.0283 17.913 40.9764 26.4286 40.9764C31.458 40.9764 35.932 38.5518 38.7532 34.8089C37.5502 35.3177 36.2299 35.5991 34.8462 35.5991C29.2864 35.5991 24.7624 31.064 24.7624 25.4863C24.7624 19.9085 29.2864 15.3773 34.8462 15.3773Z" fill="white"/>
<path d="M34.8461 32.2598C38.5747 32.2598 41.5974 29.2285 41.5974 25.4891C41.5974 21.7497 38.5747 18.7183 34.8461 18.7183C31.1174 18.7183 28.0947 21.7497 28.0947 25.4891C28.0947 29.2285 31.1174 32.2598 34.8461 32.2598Z" fill="#22AD5C"/>
<path d="M59.4123 35.2792C60.2527 35.2792 61.0427 35.128 61.7822 34.8254C62.5218 34.5229 63.1773 34.1111 63.7488 33.59C64.3202 33.069 64.7489 32.4807 65.0346 31.8252L63.3202 30.8923C62.9672 31.6487 62.4461 32.2538 61.757 32.7076C61.0847 33.1614 60.3031 33.3883 59.4123 33.3883C58.5215 33.3883 57.7147 33.1614 56.9919 32.7076C56.286 32.2538 55.7229 31.6403 55.3027 30.8671C54.8993 30.0771 54.6976 29.1947 54.6976 28.2199C54.6976 27.2282 54.8993 26.3458 55.3027 25.5726C55.7229 24.7826 56.286 24.1691 56.9919 23.7321C57.7147 23.2783 58.5215 23.0514 59.4123 23.0514C60.3031 23.0514 61.0931 23.2783 61.7822 23.7321C62.4714 24.1859 62.984 24.7742 63.3202 25.4969L65.0346 24.6145C64.7489 23.9422 64.3202 23.3539 63.7488 22.8497C63.1773 22.3286 62.5218 21.9168 61.7822 21.6143C61.0427 21.3117 60.2527 21.1605 59.4123 21.1605C58.0845 21.1605 56.9163 21.4714 55.9078 22.0933C54.8993 22.6984 54.1093 23.5304 53.5379 24.5893C52.9664 25.6482 52.6807 26.85 52.6807 28.1946C52.6807 29.5393 52.9664 30.7495 53.5379 31.8252C54.1093 32.8841 54.8993 33.7245 55.9078 34.3464C56.9163 34.9683 58.0845 35.2792 59.4123 35.2792ZM76.2325 35.2792C77.4931 35.2792 78.6361 34.9767 79.6614 34.3716C80.7035 33.7665 81.5355 32.9345 82.1574 31.8756C82.7792 30.7999 83.0902 29.5729 83.0902 28.1946C83.0902 26.8332 82.7877 25.623 82.1826 24.5641C81.5943 23.5052 80.7791 22.6732 79.737 22.0681C78.7117 21.463 77.5435 21.1605 76.2325 21.1605C74.9215 21.1605 73.7449 21.4714 72.7028 22.0933C71.6775 22.6984 70.8623 23.5304 70.2572 24.5893C69.6521 25.6482 69.3496 26.85 69.3496 28.1946C69.3496 29.5561 69.6521 30.7747 70.2572 31.8504C70.8791 32.9093 71.7111 33.7497 72.7532 34.3716C73.7953 34.9767 74.9551 35.2792 76.2325 35.2792ZM76.2325 33.3883C75.3249 33.3883 74.5013 33.1614 73.7617 32.7076C73.039 32.2538 72.4591 31.6319 72.0221 30.8419C71.5851 30.0519 71.3666 29.1695 71.3666 28.1946C71.3666 27.2198 71.5851 26.3458 72.0221 25.5726C72.4591 24.7994 73.039 24.1859 73.7617 23.7321C74.5013 23.2783 75.3249 23.0514 76.2325 23.0514C77.1401 23.0514 77.9553 23.2783 78.6781 23.7321C79.4176 24.1859 79.9975 24.7994 80.4177 25.5726C80.8547 26.3458 81.0732 27.2198 81.0732 28.1946C81.0732 29.1695 80.8547 30.0519 80.4177 30.8419C79.9975 31.6319 79.4176 32.2538 78.6781 32.7076C77.9553 33.1614 77.1401 33.3883 76.2325 33.3883ZM88.9095 40.5486C90.2037 40.5486 91.2626 40.1704 92.0862 39.414C92.9266 38.6745 93.5905 37.6912 94.0779 36.4642L100.104 21.3369H97.0278L93.1955 31.3462L89.3633 21.3369H86.3126L91.7332 34.9767L91.355 35.8339C91.0525 36.5567 90.7079 37.0861 90.3213 37.4223C89.9516 37.7752 89.3717 37.9517 88.5817 37.9517C88.3128 37.9517 88.0354 37.9265 87.7497 37.8761C87.464 37.8425 87.2202 37.8005 87.0185 37.75V40.1956C87.3043 40.3133 87.6068 40.3973 87.9262 40.4477C88.2623 40.515 88.5901 40.5486 88.9095 40.5486ZM107.689 35.2792C108.631 35.2792 109.479 35.1196 110.236 34.8002C110.993 34.4641 111.623 33.9934 112.127 33.3883V34.9767H114.85V25.7995C114.85 24.8582 114.615 24.0346 114.144 23.3287C113.673 22.606 113.026 22.0429 112.203 21.6395C111.379 21.2361 110.429 21.0344 109.353 21.0344C108.496 21.0344 107.681 21.1857 106.908 21.4882C106.151 21.774 105.487 22.1689 104.916 22.6732C104.361 23.1774 103.949 23.7657 103.681 24.438L106.05 25.623C106.319 24.9843 106.731 24.4716 107.286 24.0851C107.857 23.6985 108.521 23.5052 109.278 23.5052C110.101 23.5052 110.757 23.7237 111.245 24.1607C111.749 24.5809 112.001 25.1272 112.001 25.7995V26.3289L107.664 27.0349C106.084 27.3038 104.916 27.8249 104.16 28.598C103.42 29.3544 103.05 30.2788 103.05 31.3714C103.05 32.5479 103.479 33.4976 104.336 34.2203C105.193 34.9263 106.311 35.2792 107.689 35.2792ZM106.025 31.2705C106.025 30.7327 106.202 30.2872 106.555 29.9343C106.908 29.5813 107.462 29.346 108.219 29.2283L112.001 28.5728V29.304C112.001 29.9931 111.833 30.6234 111.497 31.1949C111.177 31.7664 110.732 32.2202 110.16 32.5563C109.589 32.8757 108.916 33.0354 108.143 33.0354C107.521 33.0354 107.009 32.8757 106.605 32.5563C106.219 32.2202 106.025 31.7916 106.025 31.2705ZM119.733 34.9767H122.582V27.1105C122.582 26.0348 122.867 25.2112 123.439 24.6397C124.027 24.0514 124.792 23.7573 125.733 23.7573H126.918V21.1605H126.086C125.262 21.1605 124.54 21.3117 123.918 21.6143C123.296 21.9168 122.809 22.4043 122.456 23.0766V21.3369H119.733V34.9767ZM136.722 35.2792C137.663 35.2792 138.529 35.1028 139.318 34.7498C140.125 34.3968 140.781 33.8842 141.285 33.2119V34.9767H143.983V15.8911H141.159V22.9253C140.655 22.337 140.016 21.8748 139.243 21.5386C138.486 21.2025 137.638 21.0344 136.696 21.0344C135.402 21.0344 134.234 21.3453 133.192 21.9672C132.167 22.5891 131.351 23.438 130.746 24.5137C130.158 25.5894 129.864 26.7996 129.864 28.1442C129.864 29.4889 130.158 30.699 130.746 31.7748C131.351 32.8505 132.167 33.7077 133.192 34.3464C134.234 34.9683 135.411 35.2792 136.722 35.2792ZM136.999 32.632C136.192 32.632 135.469 32.4387 134.831 32.0521C134.209 31.6655 133.721 31.1361 133.368 30.4637C133.015 29.7746 132.839 29.0014 132.839 28.1442C132.839 27.287 133.015 26.5222 133.368 25.8499C133.738 25.1776 134.234 24.6481 134.856 24.2615C135.495 23.875 136.209 23.6817 136.999 23.6817C137.789 23.6817 138.495 23.875 139.117 24.2615C139.755 24.6481 140.251 25.1776 140.604 25.8499C140.974 26.5222 141.159 27.287 141.159 28.1442C141.159 29.0014 140.974 29.7746 140.604 30.4637C140.251 31.1361 139.755 31.6655 139.117 32.0521C138.495 32.4387 137.789 32.632 136.999 32.632ZM153.903 35.2792C154.911 35.2792 155.794 35.1112 156.55 34.775C157.323 34.422 157.92 33.943 158.34 33.3379C158.76 32.716 158.97 32.0017 158.97 31.1949C158.97 30.2536 158.668 29.4468 158.063 28.7745C157.458 28.0854 156.592 27.5811 155.466 27.2618L153.247 26.6063C152.827 26.4718 152.432 26.2869 152.062 26.0516C151.692 25.8163 151.508 25.4633 151.508 24.9927C151.508 24.5053 151.692 24.1187 152.062 23.8329C152.432 23.5472 152.928 23.4043 153.55 23.4043C154.272 23.4043 154.92 23.5976 155.491 23.9842C156.079 24.3708 156.508 24.8919 156.777 25.5474L158.97 24.5137C158.567 23.4211 157.878 22.5723 156.903 21.9672C155.928 21.3453 154.819 21.0344 153.575 21.0344C152.65 21.0344 151.818 21.2109 151.079 21.5639C150.339 21.9 149.76 22.3706 149.339 22.9757C148.919 23.5808 148.709 24.2952 148.709 25.1188C148.709 26.0432 148.995 26.8416 149.566 27.5139C150.154 28.1862 151.037 28.6905 152.213 29.0266L154.357 29.6317C154.794 29.7494 155.205 29.9343 155.592 30.1864C155.978 30.4217 156.172 30.7831 156.172 31.2705C156.172 31.7916 155.962 32.2034 155.541 32.5059C155.121 32.8085 154.575 32.9597 153.903 32.9597C153.113 32.9597 152.39 32.7328 151.734 32.279C151.096 31.8252 150.592 31.2117 150.222 30.4385L148.028 31.4722C148.448 32.632 149.18 33.5564 150.222 34.2455C151.281 34.9347 152.508 35.2792 153.903 35.2792Z" fill="white"/>
</svg>
