<svg width="79" height="51" viewBox="0 0 79 51" fill="none" xmlns="http://www.w3.org/2000/svg">
<rect width="77.7881" height="51" transform="translate(0.984863)" fill="black"/>
<path d="M5.98486 5.83709L11.2019 5V33.3221H5.98486V5.83709ZM17.9635 17.1668C17.4689 16.4222 16.7263 16.05 15.736 16.05C14.9069 16.05 14.0637 16.3093 13.2075 16.8279C12.3514 17.3465 11.5223 18.0717 10.7192 19.0024V18.0846C11.6283 16.489 12.7725 15.172 14.1503 14.1358C15.5281 13.0986 16.9396 12.5671 18.3846 12.5402C20.0427 12.5402 21.3806 13.2579 22.3979 14.6943C23.4143 16.1296 23.923 18.1115 23.923 20.6378V33.2834H18.706V20.2784C18.706 18.9485 18.4581 17.9124 17.9635 17.1668Z" fill="#FFB005"/>
<path d="M33.6061 33.3619C32.7099 32.9897 31.9273 32.4442 31.2584 31.7265C30.5895 31.0089 30.1349 30.1449 29.8935 29.1335H30.4553L30.0136 33.3221H25.4785L26.2005 26.4608V5.79728L31.3374 5V22.2324C31.3374 24.2541 31.6578 26.0488 32.3007 27.6185C32.9426 29.1884 33.7381 30.3977 34.6884 31.2477C35.6377 32.0999 36.5674 32.5249 37.4777 32.5249C38.5471 32.5249 39.3503 31.9266 39.886 30.7291C40.4207 29.5327 40.688 28.0833 40.688 26.3812C40.688 24.8393 40.4672 23.2427 40.0256 21.5943C39.584 19.9449 38.9281 18.5558 38.059 17.4261C37.1887 16.2964 36.1388 15.7175 34.9092 15.6906C34.2133 15.6906 33.5379 15.8896 32.883 16.2888C32.2271 16.688 31.5918 17.3132 30.977 18.1642V16.8472C31.8061 15.5712 32.7965 14.534 33.947 13.7356C35.0965 12.9372 36.3683 12.5391 37.7591 12.5391C39.0439 12.5391 40.2876 12.8974 41.4912 13.6161C42.6947 14.3338 43.6841 15.4248 44.4612 16.887C45.2362 18.3493 45.6247 20.1181 45.6247 22.1926C45.6247 24.4531 45.1767 26.4748 44.2805 28.2555C43.3842 30.0373 42.2272 31.4263 40.8092 32.4237C39.3914 33.4211 37.9063 33.9193 36.3553 33.9193C35.419 33.9193 34.5023 33.7332 33.6061 33.3608V33.3619Z" fill="#FFB005"/>
<path d="M59.4278 26.2619C59.1475 26.023 58.826 25.9434 58.4645 26.023C58.1029 26.1027 57.815 26.3297 57.6018 26.7009C56.6114 28.5623 53.5624 32.6046 53.1879 32.6046C52.9476 32.6046 52.7668 32.4185 52.6467 32.0462C52.5265 31.6739 52.4659 30.8896 52.4659 29.692V14.9258C54.4304 14.7106 57.2446 13.8605 59.3347 10.9932L58.064 10.0775C56.369 12.4037 54.0992 13.1461 52.4659 13.3571V7.39307L45.2422 13.7358V14.533H47.329L47.2489 27.3378C47.2489 29.7587 47.6699 31.4609 48.5131 32.4443C49.3563 33.4288 50.5793 33.9205 52.1845 33.9205C53.4152 33.9205 54.7054 33.7139 56.0573 33.3029C57.4081 32.8909 58.6723 32.3926 59.8488 31.8073V27.2992C59.8488 26.8472 59.7081 26.5019 59.4278 26.2619Z" fill="#FFB005"/>
<path d="M51.064 23.799L53.535 25.7227L53.167 26.1908L52.1268 25.3806L51.3129 26.4145L52.352 27.2236L51.9829 27.6917L49.5107 25.7679L49.8798 25.2999L50.8605 26.0638L51.6755 25.0298L50.6948 24.2659L51.064 23.7979V23.799Z" fill="white"/>
<path d="M58.0848 23.1866L57.4722 23.2953L58.0707 20.0201L58.6097 19.9243L60.3156 22.7885L59.703 22.8982L59.3685 22.3043L58.192 22.5141L58.0859 23.1877L58.0848 23.1866ZM59.0752 21.803L58.4809 20.7517L58.2915 21.9428L59.0762 21.803H59.0752Z" fill="white"/>
<path d="M67.3413 24.1679C67.1 24.5725 66.5187 24.7188 66.0057 24.4154L64.8486 23.7322L66.4538 21.0498L67.5676 21.7082C68.0384 21.9869 68.1769 22.5303 67.9356 22.9349C67.7191 23.2964 67.3088 23.2555 67.3088 23.2555C67.3088 23.2555 67.6346 23.6794 67.3424 24.1679H67.3413ZM66.8662 23.7999C66.9939 23.5869 66.9235 23.3157 66.6886 23.1759L66.089 22.8219L65.6312 23.5879L66.2308 23.9419C66.4668 24.0808 66.7395 24.0119 66.8672 23.7999H66.8662ZM66.3185 22.4389L66.8748 22.7681C67.0675 22.8821 67.3067 22.8219 67.4084 22.6519C67.5101 22.4819 67.4496 22.2441 67.2569 22.1301L66.7006 21.8008L66.3185 22.4389Z" fill="white"/>
<path d="M70.0584 29.3348L69.8311 28.7861L72.7318 27.5972L72.9588 28.1459L70.0584 29.3348Z" fill="white"/>
<path d="M73.773 34.7045L73.2087 37.0673L72.6516 36.9361L72.8648 36.0441L70.3667 35.4545L70.504 34.8756L73.0021 35.4653L73.2153 34.5732L73.773 34.7045Z" fill="white"/>
<path d="M68.6316 43.3372C68.1347 43.7105 67.5416 43.6288 67.1963 43.1747L67.6531 42.8315C67.8187 43.0488 68.0622 43.0822 68.3014 42.9035C68.5396 42.725 68.5731 42.4818 68.4681 42.343C68.138 41.9083 67.0264 43.1155 66.3358 42.2074C66.0652 41.8523 66.1529 41.2283 66.7082 40.8098C67.2635 40.3912 67.8577 40.4741 68.2181 40.9475L67.7408 41.3058C67.5762 41.0884 67.297 41.0497 67.0383 41.2445C66.7601 41.4532 66.7266 41.6963 66.8467 41.8545C67.192 42.3086 68.3036 41.1014 68.9617 41.9664C69.2496 42.3452 69.1673 42.9347 68.6316 43.3382V43.3372Z" fill="white"/>
<path d="M59.0947 43.3734L59.1164 42.8042L61.1837 42.8806L61.0679 45.9998L60.4704 45.9783L60.5645 43.4282L59.0958 43.3745L59.0947 43.3734Z" fill="white"/>
<path d="M54.449 40.7571L54.9068 41.1767L51.9173 42.6787L51.5146 42.3086L52.7843 39.2271L53.2411 39.6467L52.9661 40.2708L53.845 41.0777L54.449 40.756V40.7571ZM52.741 40.8066L52.2571 41.9115L53.3277 41.3435L52.7421 40.8055L52.741 40.8066Z" fill="white"/>
<path d="M49.6447 32.8111C50.1155 32.7584 50.5831 33.1306 50.6502 33.7214L50.7996 35.0512L47.6791 35.3988L47.5351 34.1184C47.4745 33.5772 47.8263 33.1393 48.296 33.0866C48.7171 33.0392 48.9314 33.39 48.9314 33.39C48.9314 33.39 49.0743 32.8757 49.6436 32.8122L49.6447 32.8111ZM48.8762 34.666L48.8037 34.0258C48.7788 33.8042 48.5861 33.6514 48.388 33.674C48.19 33.6955 48.0363 33.8871 48.0612 34.1087L48.1337 34.7489L48.8762 34.666ZM49.6371 33.4093C49.3893 33.4373 49.2128 33.6557 49.2442 33.9269L49.3221 34.6165L50.2129 34.5176L50.135 33.8279C50.1047 33.5578 49.8839 33.3824 49.6371 33.4104V33.4093Z" fill="white"/>
</svg>
